<svg width="269" height="297" viewBox="0 0 269 297" fill="none" xmlns="http://www.w3.org/2000/svg">
<mask id="mask0_0_33" style="mask-type:alpha" maskUnits="userSpaceOnUse" x="0" y="0" width="269" height="297">
<rect width="269" height="297" fill="#D9D9D9"/>
</mask>
<g mask="url(#mask0_0_33)">
<g filter="url(#filter0_d_0_33)">
<rect width="268.72" height="296.928" rx="8" fill="white"/>
</g>
<path d="M58.1786 43.4334V33.9789H63.8845V34.9945H59.3235V38.1891H63.5891V39.2047H59.3235V42.4178H63.9584V43.4334H58.1786ZM67.887 43.5996C67.4377 43.5996 67.0299 43.515 66.6637 43.3457C66.2974 43.1733 66.0066 42.9256 65.7911 42.6024C65.5757 42.2762 65.468 41.8823 65.468 41.4206C65.468 41.0144 65.548 40.6851 65.7081 40.4327C65.8681 40.1773 66.082 39.9772 66.3497 39.8326C66.6175 39.6879 66.913 39.5802 67.2361 39.5094C67.5623 39.4355 67.8901 39.3771 68.2194 39.334C68.6503 39.2786 68.9996 39.237 69.2674 39.2093C69.5382 39.1786 69.7352 39.1278 69.8583 39.057C69.9844 38.9862 70.0475 38.8631 70.0475 38.6877V38.6507C70.0475 38.1952 69.9229 37.8413 69.6736 37.589C69.4274 37.3366 69.0535 37.2104 68.5518 37.2104C68.0317 37.2104 67.6239 37.3243 67.3284 37.552C67.033 37.7798 66.8252 38.0229 66.7052 38.2814L65.6711 37.9121C65.8558 37.4812 66.102 37.1458 66.4098 36.9057C66.7206 36.6626 67.0591 36.4933 67.4254 36.3979C67.7947 36.2994 68.1579 36.2502 68.5149 36.2502C68.7426 36.2502 69.0042 36.2779 69.2997 36.3333C69.5982 36.3856 69.886 36.4948 70.163 36.661C70.443 36.8272 70.6754 37.0781 70.86 37.4135C71.0447 37.749 71.137 38.1983 71.137 38.7615V43.4334H70.0475V42.4732H69.9921C69.9183 42.6271 69.7952 42.7917 69.6228 42.9671C69.4505 43.1426 69.2212 43.2918 68.935 43.4149C68.6487 43.5381 68.2994 43.5996 67.887 43.5996ZM68.0532 42.6209C68.4841 42.6209 68.8473 42.5363 69.1427 42.367C69.4412 42.1977 69.6659 41.9792 69.8167 41.7115C69.9706 41.4437 70.0475 41.1621 70.0475 40.8666V39.8695C70.0014 39.9249 69.8998 39.9757 69.7429 40.0218C69.589 40.0649 69.4105 40.1034 69.2073 40.1372C69.0073 40.168 68.8119 40.1957 68.621 40.2203C68.4333 40.2419 68.281 40.2604 68.164 40.2757C67.8809 40.3127 67.6162 40.3727 67.37 40.4558C67.1268 40.5358 66.9299 40.6574 66.7791 40.8205C66.6313 40.9805 66.5575 41.199 66.5575 41.476C66.5575 41.8546 66.6975 42.1408 66.9776 42.3347C67.2607 42.5255 67.6193 42.6209 68.0532 42.6209ZM73.1256 43.4334V36.3425H74.1781V37.4135H74.252C74.3813 37.0627 74.6152 36.778 74.9537 36.5595C75.2922 36.341 75.6739 36.2317 76.0986 36.2317C76.1786 36.2317 76.2786 36.2332 76.3987 36.2363C76.5187 36.2394 76.6095 36.244 76.671 36.2502V37.3581C76.6341 37.3489 76.5495 37.335 76.4171 37.3166C76.2879 37.295 76.1509 37.2843 76.0063 37.2843C75.4892 37.2843 75.0614 37.4412 74.7229 37.7551C74.3843 38.0691 74.2151 38.4661 74.2151 38.9462V43.4334H73.1256ZM79.052 39.1678V43.4334H77.9625V36.3425H79.015V37.4505H79.1074C79.2736 37.0904 79.5259 36.8011 79.8645 36.5826C80.203 36.361 80.64 36.2502 81.1756 36.2502C81.8927 36.2502 82.4713 36.4702 82.9114 36.9103C83.3545 37.3504 83.5761 38.0229 83.5761 38.9277V43.4334H82.4866V39.0016C82.4866 38.4445 82.342 38.0106 82.0527 37.6997C81.7634 37.3858 81.3664 37.2289 80.8616 37.2289C80.3415 37.2289 79.9091 37.3981 79.5644 37.7367C79.2228 38.0721 79.052 38.5492 79.052 39.1678ZM85.567 43.4334V36.3425H86.6565V43.4334H85.567ZM86.121 35.1607C85.9086 35.1607 85.7255 35.0884 85.5716 34.9437C85.4208 34.7991 85.3454 34.6252 85.3454 34.422C85.3454 34.2189 85.4208 34.045 85.5716 33.9004C85.7255 33.7557 85.9086 33.6834 86.121 33.6834C86.3333 33.6834 86.5149 33.7557 86.6657 33.9004C86.8196 34.045 86.8965 34.2189 86.8965 34.422C86.8965 34.6252 86.8196 34.7991 86.6657 34.9437C86.5149 35.0884 86.3333 35.1607 86.121 35.1607ZM89.7414 39.1678V43.4334H88.6519V36.3425H89.7045V37.4505H89.7968C89.963 37.0904 90.2154 36.8011 90.5539 36.5826C90.8925 36.361 91.3295 36.2502 91.865 36.2502C92.5821 36.2502 93.1607 36.4702 93.6008 36.9103C94.044 37.3504 94.2656 38.0229 94.2656 38.9277V43.4334H93.1761V39.0016C93.1761 38.4445 93.0314 38.0106 92.7421 37.6997C92.4528 37.3858 92.0558 37.2289 91.5511 37.2289C91.031 37.2289 90.5986 37.3981 90.2539 37.7367C89.9122 38.0721 89.7414 38.5492 89.7414 39.1678ZM99.1187 46.2402C98.3277 46.2402 97.7014 46.0956 97.2397 45.8063C96.7812 45.5201 96.4411 45.1907 96.2195 44.8184L97.0874 44.209C97.1859 44.3382 97.3105 44.486 97.4613 44.6522C97.6121 44.8214 97.8183 44.9676 98.0799 45.0907C98.3446 45.2169 98.6909 45.28 99.1187 45.28C99.6911 45.28 100.164 45.1415 100.536 44.8645C100.908 44.5875 101.095 44.1536 101.095 43.5627V42.1223H101.002C100.922 42.2516 100.808 42.4116 100.661 42.6024C100.516 42.7902 100.307 42.9579 100.033 43.1056C99.7619 43.2503 99.3956 43.3226 98.934 43.3226C98.3616 43.3226 97.8476 43.1872 97.3921 42.9164C96.9397 42.6455 96.5811 42.2516 96.3165 41.7345C96.0549 41.2175 95.9241 40.5897 95.9241 39.851C95.9241 39.1247 96.0518 38.4922 96.3072 37.9537C96.5627 37.412 96.9181 36.9934 97.3736 36.698C97.8291 36.3994 98.3554 36.2502 98.9525 36.2502C99.4141 36.2502 99.7803 36.3271 100.051 36.481C100.325 36.6318 100.534 36.8041 100.679 36.998C100.827 37.1889 100.941 37.3458 101.021 37.4689H101.131V36.3425H102.184V43.6365C102.184 44.2459 102.045 44.7414 101.769 45.123C101.495 45.5077 101.125 45.7894 100.661 45.9679C100.199 46.1494 99.6849 46.2402 99.1187 46.2402ZM99.0817 42.3439C99.7373 42.3439 100.239 42.1223 100.587 41.6791C100.938 41.2329 101.113 40.6174 101.113 39.8326C101.113 39.0662 100.941 38.4415 100.596 37.9583C100.251 37.472 99.7465 37.2289 99.0817 37.2289C98.6201 37.2289 98.2354 37.3458 97.9276 37.5797C97.6229 37.8136 97.3936 38.1275 97.2397 38.5215C97.0889 38.9154 97.0135 39.3524 97.0135 39.8326C97.0135 40.5712 97.1874 41.1744 97.5352 41.6422C97.883 42.11 98.3985 42.3439 99.0817 42.3439ZM107.982 43.4334V33.9789H111.288C111.946 33.9789 112.49 34.0927 112.917 34.3205C113.345 34.5452 113.664 34.8483 113.873 35.2299C114.082 35.6085 114.187 36.0286 114.187 36.4902C114.187 36.8965 114.115 37.2319 113.97 37.4966C113.828 37.7613 113.641 37.9706 113.407 38.1245C113.176 38.2783 112.925 38.3922 112.654 38.4661V38.5584C112.943 38.5769 113.234 38.6784 113.527 38.8631C113.819 39.0478 114.064 39.3124 114.261 39.6571C114.458 40.0018 114.556 40.4235 114.556 40.922C114.556 41.396 114.448 41.8223 114.233 42.2008C114.018 42.5794 113.677 42.8794 113.213 43.101C112.748 43.3226 112.143 43.4334 111.398 43.4334H107.982ZM109.127 42.4178H111.398C112.146 42.4178 112.677 42.2731 112.991 41.9838C113.308 41.6915 113.467 41.3375 113.467 40.922C113.467 40.602 113.385 40.3065 113.222 40.0357C113.059 39.7618 112.827 39.5433 112.525 39.3801C112.223 39.214 111.866 39.1309 111.454 39.1309H109.127V42.4178ZM109.127 38.1337H111.251C111.768 38.1337 112.205 37.9844 112.562 37.6859C112.919 37.3874 113.097 36.9888 113.097 36.4902C113.097 36.0747 112.953 35.7224 112.663 35.4331C112.374 35.1407 111.916 34.9945 111.288 34.9945H109.127V38.1337ZM116.954 46.1848C116.77 46.1848 116.605 46.1694 116.46 46.1387C116.316 46.111 116.216 46.0833 116.16 46.0556L116.437 45.0953C116.834 45.1969 117.165 45.1938 117.43 45.0861C117.698 44.9815 117.927 44.6645 118.118 44.1351L118.358 43.4703L115.736 36.3425H116.917L118.875 41.9931H118.949L120.906 36.3425H122.088L119.041 44.5783C118.641 45.6493 117.945 46.1848 116.954 46.1848ZM127.33 43.4334V33.9789H130.525C131.266 33.9789 131.873 34.1127 132.343 34.3805C132.817 34.6452 133.168 35.0037 133.396 35.4561C133.624 35.9086 133.738 36.4133 133.738 36.9703C133.738 37.5274 133.624 38.0337 133.396 38.4892C133.171 38.9447 132.824 39.3078 132.353 39.5787C131.882 39.8464 131.279 39.9803 130.543 39.9803H128.475V43.4334H127.33ZM128.475 38.9647H130.506C131.266 38.9647 131.806 38.7738 132.126 38.3922C132.45 38.0106 132.611 37.5366 132.611 36.9703C132.611 36.401 132.45 35.9301 132.126 35.5577C131.803 35.1822 131.257 34.9945 130.488 34.9945H128.475V38.9647ZM136.524 33.9789V43.4334H135.434V33.9789H136.524ZM140.606 43.5996C140.156 43.5996 139.749 43.515 139.382 43.3457C139.016 43.1733 138.725 42.9256 138.51 42.6024C138.294 42.2762 138.187 41.8823 138.187 41.4206C138.187 41.0144 138.267 40.6851 138.427 40.4327C138.587 40.1773 138.801 39.9772 139.068 39.8326C139.336 39.6879 139.632 39.5802 139.955 39.5094C140.281 39.4355 140.609 39.3771 140.938 39.334C141.369 39.2786 141.718 39.237 141.986 39.2093C142.257 39.1786 142.454 39.1278 142.577 39.057C142.703 38.9862 142.766 38.8631 142.766 38.6877V38.6507C142.766 38.1952 142.642 37.8413 142.392 37.589C142.146 37.3366 141.772 37.2104 141.271 37.2104C140.75 37.2104 140.343 37.3243 140.047 37.552C139.752 37.7798 139.544 38.0229 139.424 38.2814L138.39 37.9121C138.575 37.4812 138.821 37.1458 139.129 36.9057C139.439 36.6626 139.778 36.4933 140.144 36.3979C140.513 36.2994 140.877 36.2502 141.234 36.2502C141.461 36.2502 141.723 36.2779 142.018 36.3333C142.317 36.3856 142.605 36.4948 142.882 36.661C143.162 36.8272 143.394 37.0781 143.579 37.4135C143.763 37.749 143.856 38.1983 143.856 38.7615V43.4334H142.766V42.4732H142.711C142.637 42.6271 142.514 42.7917 142.342 42.9671C142.169 43.1426 141.94 43.2918 141.654 43.4149C141.367 43.5381 141.018 43.5996 140.606 43.5996ZM140.772 42.6209C141.203 42.6209 141.566 42.5363 141.861 42.367C142.16 42.1977 142.385 41.9792 142.535 41.7115C142.689 41.4437 142.766 41.1621 142.766 40.8666V39.8695C142.72 39.9249 142.619 39.9757 142.462 40.0218C142.308 40.0649 142.129 40.1034 141.926 40.1372C141.726 40.168 141.531 40.1957 141.34 40.2203C141.152 40.2419 141 40.2604 140.883 40.2757C140.6 40.3127 140.335 40.3727 140.089 40.4558C139.846 40.5358 139.649 40.6574 139.498 40.8205C139.35 40.9805 139.276 41.199 139.276 41.476C139.276 41.8546 139.416 42.1408 139.696 42.3347C139.979 42.5255 140.338 42.6209 140.772 42.6209ZM148.928 36.3425V37.2658H147.414V41.4022C147.414 41.7099 147.459 41.9407 147.548 42.0946C147.64 42.2454 147.757 42.347 147.899 42.3993C148.043 42.4486 148.196 42.4732 148.356 42.4732C148.476 42.4732 148.574 42.467 148.651 42.4547C148.728 42.4393 148.79 42.427 148.836 42.4178L149.057 43.3965C148.984 43.4242 148.88 43.4519 148.748 43.4796C148.616 43.5104 148.448 43.5257 148.245 43.5257C147.937 43.5257 147.636 43.4596 147.34 43.3272C147.048 43.1949 146.805 42.9933 146.611 42.7225C146.42 42.4516 146.324 42.11 146.324 41.6976V37.2658H145.253V36.3425H146.324V34.6436H147.414V36.3425H148.928ZM153.725 36.3425V37.2658H152.137V43.4334H151.047V37.2658H149.902V36.3425H151.047V35.3638C151.047 34.9576 151.143 34.619 151.333 34.3482C151.524 34.0773 151.772 33.8742 152.077 33.7388C152.381 33.6034 152.703 33.5357 153.041 33.5357C153.309 33.5357 153.528 33.5572 153.697 33.6003C153.866 33.6434 153.992 33.6834 154.076 33.7203L153.762 34.6621C153.706 34.6436 153.629 34.6206 153.531 34.5929C153.435 34.5652 153.309 34.5513 153.152 34.5513C152.792 34.5513 152.532 34.6421 152.372 34.8237C152.215 35.0053 152.137 35.2715 152.137 35.6223V36.3425H153.725ZM157.84 43.5811C157.2 43.5811 156.638 43.4288 156.155 43.1241C155.675 42.8194 155.3 42.3932 155.029 41.8453C154.761 41.2975 154.627 40.6574 154.627 39.9249C154.627 39.1863 154.761 38.5415 155.029 37.9906C155.3 37.4397 155.675 37.0119 156.155 36.7072C156.638 36.4025 157.2 36.2502 157.84 36.2502C158.48 36.2502 159.041 36.4025 159.521 36.7072C160.004 37.0119 160.379 37.4397 160.647 37.9906C160.918 38.5415 161.053 39.1863 161.053 39.9249C161.053 40.6574 160.918 41.2975 160.647 41.8453C160.379 42.3932 160.004 42.8194 159.521 43.1241C159.041 43.4288 158.48 43.5811 157.84 43.5811ZM157.84 42.6024C158.327 42.6024 158.727 42.4778 159.041 42.2285C159.354 41.9792 159.587 41.6515 159.738 41.2452C159.888 40.839 159.964 40.3988 159.964 39.9249C159.964 39.4509 159.888 39.0093 159.738 38.6C159.587 38.1906 159.354 37.8598 159.041 37.6074C158.727 37.355 158.327 37.2289 157.84 37.2289C157.354 37.2289 156.954 37.355 156.64 37.6074C156.326 37.8598 156.094 38.1906 155.943 38.6C155.792 39.0093 155.717 39.4509 155.717 39.9249C155.717 40.3988 155.792 40.839 155.943 41.2452C156.094 41.6515 156.326 41.9792 156.64 42.2285C156.954 42.4778 157.354 42.6024 157.84 42.6024ZM162.716 43.4334V36.3425H163.769V37.4135H163.843C163.972 37.0627 164.206 36.778 164.545 36.5595C164.883 36.341 165.265 36.2317 165.689 36.2317C165.769 36.2317 165.869 36.2332 165.989 36.2363C166.11 36.2394 166.2 36.244 166.262 36.2502V37.3581C166.225 37.3489 166.14 37.335 166.008 37.3166C165.879 37.295 165.742 37.2843 165.597 37.2843C165.08 37.2843 164.652 37.4412 164.314 37.7551C163.975 38.0691 163.806 38.4661 163.806 38.9462V43.4334H162.716ZM167.553 43.4334V36.3425H168.606V37.4505H168.698C168.846 37.0719 169.084 36.778 169.414 36.5687C169.743 36.3564 170.139 36.2502 170.6 36.2502C171.068 36.2502 171.457 36.3564 171.768 36.5687C172.082 36.778 172.327 37.0719 172.502 37.4505H172.576C172.758 37.0842 173.03 36.7934 173.393 36.5779C173.756 36.3594 174.192 36.2502 174.7 36.2502C175.334 36.2502 175.852 36.4487 176.255 36.8457C176.659 37.2396 176.86 37.8536 176.86 38.6877V43.4334H175.771V38.6877C175.771 38.1645 175.628 37.7905 175.341 37.5659C175.055 37.3412 174.718 37.2289 174.33 37.2289C173.832 37.2289 173.445 37.3797 173.172 37.6813C172.898 37.9798 172.761 38.3584 172.761 38.8169V43.4334H171.653V38.5769C171.653 38.1737 171.522 37.849 171.26 37.6028C170.999 37.3535 170.662 37.2289 170.249 37.2289C169.966 37.2289 169.702 37.3043 169.455 37.4551C169.212 37.6059 169.015 37.8152 168.864 38.0829C168.717 38.3476 168.643 38.6538 168.643 39.0016V43.4334H167.553ZM182.139 34.9945V33.9789H189.23V34.9945H186.257V43.4334H185.112V34.9945H182.139ZM190.701 46.1848C190.517 46.1848 190.352 46.1694 190.208 46.1387C190.063 46.111 189.963 46.0833 189.907 46.0556L190.184 45.0953C190.581 45.1969 190.912 45.1938 191.177 45.0861C191.445 44.9815 191.674 44.6645 191.865 44.1351L192.105 43.4703L189.483 36.3425H190.665L192.622 41.9931H192.696L194.653 36.3425H195.835L192.788 44.5783C192.388 45.6493 191.692 46.1848 190.701 46.1848ZM197.273 46.0925V36.3425H198.326V37.4689H198.455C198.535 37.3458 198.646 37.1889 198.787 36.998C198.932 36.8041 199.138 36.6318 199.406 36.481C199.677 36.3271 200.043 36.2502 200.505 36.2502C201.102 36.2502 201.628 36.3994 202.083 36.698C202.539 36.9965 202.894 37.4197 203.15 37.9675C203.405 38.5153 203.533 39.1616 203.533 39.9064C203.533 40.6574 203.405 41.3083 203.15 41.8592C202.894 42.407 202.54 42.8317 202.088 43.1333C201.636 43.4319 201.114 43.5811 200.523 43.5811C200.068 43.5811 199.703 43.5057 199.429 43.3549C199.155 43.201 198.944 43.0272 198.796 42.8333C198.649 42.6363 198.535 42.4732 198.455 42.3439H198.363V46.0925H197.273ZM198.344 39.888C198.344 40.6912 198.518 41.3452 198.866 41.85C199.217 42.3516 199.72 42.6024 200.375 42.6024C200.831 42.6024 201.211 42.4824 201.516 42.2424C201.823 41.9992 202.054 41.673 202.208 41.2637C202.365 40.8513 202.443 40.3927 202.443 39.888C202.443 39.3894 202.367 38.94 202.213 38.5399C202.062 38.1368 201.833 37.8182 201.525 37.5843C201.22 37.3474 200.837 37.2289 200.375 37.2289C199.711 37.2289 199.206 37.4735 198.861 37.9629C198.516 38.4522 198.344 39.0939 198.344 39.888ZM208.168 43.5811C207.485 43.5811 206.895 43.4303 206.4 43.1287C205.907 42.824 205.527 42.3993 205.26 41.8546C204.995 41.3068 204.863 40.6697 204.863 39.9434C204.863 39.217 204.995 38.5769 205.26 38.0229C205.527 37.4658 205.9 37.0319 206.377 36.7211C206.857 36.4071 207.417 36.2502 208.057 36.2502C208.426 36.2502 208.791 36.3117 209.151 36.4348C209.511 36.5579 209.839 36.758 210.135 37.035C210.43 37.3089 210.665 37.672 210.841 38.1245C211.016 38.5769 211.104 39.1339 211.104 39.7956V40.2573H205.957C205.981 41.0144 206.195 41.5945 206.598 41.9977C207.005 42.4009 207.528 42.6024 208.168 42.6024C208.596 42.6024 208.963 42.5101 209.271 42.3255C209.579 42.1408 209.802 41.8638 209.941 41.4945L210.993 41.7899C210.827 42.3255 210.495 42.7579 209.996 43.0872C209.497 43.4165 208.888 43.5811 208.168 43.5811ZM205.957 39.3155H209.996C209.996 38.7154 209.821 38.2183 209.47 37.8244C209.119 37.4274 208.648 37.2289 208.057 37.2289C207.642 37.2289 207.282 37.3258 206.977 37.5197C206.672 37.7136 206.432 37.9706 206.257 38.2907C206.081 38.6077 205.981 38.9493 205.957 39.3155Z" fill="#7C89A9"/>
<path d="M52.7144 263.282V270.555H51.8337V263.282H52.7144ZM55.3046 267.273V270.555H54.4666V265.1H55.2762V265.952H55.3472C55.4751 265.675 55.6692 265.453 55.9296 265.285C56.19 265.114 56.5262 265.029 56.9381 265.029C57.4898 265.029 57.9348 265.198 58.2734 265.537C58.6143 265.875 58.7847 266.393 58.7847 267.089V270.555H57.9467V267.146C57.9467 266.717 57.8354 266.383 57.6129 266.144C57.3903 265.903 57.0849 265.782 56.6967 265.782C56.2966 265.782 55.964 265.912 55.6988 266.173C55.436 266.431 55.3046 266.798 55.3046 267.273ZM64.2798 266.322L63.527 266.535C63.4536 266.345 63.3305 266.168 63.1576 266.002C62.9848 265.836 62.7149 265.754 62.348 265.754C62.0142 265.754 61.736 265.83 61.5135 265.984C61.2933 266.136 61.1832 266.329 61.1832 266.563C61.1832 266.772 61.259 266.936 61.4105 267.057C61.562 267.178 61.7987 267.278 62.1207 267.359L62.9304 267.558C63.8963 267.794 64.3792 268.287 64.3792 269.035C64.3792 269.347 64.2893 269.627 64.1093 269.873C63.9318 270.119 63.6832 270.313 63.3636 270.455C63.044 270.597 62.6723 270.668 62.2486 270.668C61.6922 270.668 61.2317 270.548 60.8672 270.306C60.5026 270.065 60.2718 269.712 60.1747 269.248L60.9701 269.049C61.1193 269.636 61.5407 269.93 62.2343 269.93C62.625 269.93 62.9351 269.847 63.1647 269.681C63.3968 269.513 63.5128 269.312 63.5128 269.077C63.5128 268.692 63.2429 268.436 62.7031 268.31L61.794 268.097C61.2945 267.979 60.9275 267.795 60.6932 267.547C60.4611 267.296 60.3451 266.982 60.3451 266.606C60.3451 266.298 60.4316 266.026 60.6044 265.789C60.7796 265.552 61.0175 265.366 61.3182 265.232C61.6212 265.097 61.9645 265.029 62.348 265.029C62.8878 265.029 63.3115 265.147 63.6193 265.384C63.9294 265.621 64.1496 265.933 64.2798 266.322ZM68.1129 265.1V265.81H66.9482V268.992C66.9482 269.229 66.9825 269.406 67.0511 269.525C67.1222 269.641 67.2121 269.719 67.321 269.759C67.4323 269.797 67.5495 269.816 67.6726 269.816C67.7649 269.816 67.8407 269.811 67.8999 269.802C67.9591 269.79 68.0064 269.781 68.0419 269.773L68.2124 270.526C68.1555 270.548 68.0762 270.569 67.9744 270.59C67.8726 270.614 67.7436 270.626 67.5874 270.626C67.3506 270.626 67.1186 270.575 66.8913 270.473C66.6664 270.371 66.4794 270.216 66.3303 270.008C66.1835 269.799 66.1101 269.537 66.1101 269.219V265.81H65.2862V265.1H66.1101V263.793H66.9482V265.1H68.1129ZM71.0787 270.683C70.7331 270.683 70.4194 270.617 70.1377 270.487C69.8559 270.355 69.6322 270.164 69.4665 269.915C69.3008 269.665 69.2179 269.362 69.2179 269.006C69.2179 268.694 69.2795 268.441 69.4026 268.246C69.5257 268.05 69.6902 267.896 69.8962 267.785C70.1021 267.674 70.3294 267.591 70.578 267.536C70.8289 267.479 71.0811 267.434 71.3344 267.401C71.6658 267.359 71.9345 267.327 72.1405 267.305C72.3488 267.282 72.5003 267.243 72.595 267.188C72.6921 267.134 72.7406 267.039 72.7406 266.904V266.876C72.7406 266.525 72.6448 266.253 72.453 266.059C72.2636 265.865 71.976 265.768 71.5901 265.768C71.19 265.768 70.8763 265.855 70.649 266.031C70.4217 266.206 70.2619 266.393 70.1696 266.592L69.3742 266.308C69.5162 265.976 69.7056 265.718 69.9423 265.533C70.1814 265.346 70.4419 265.216 70.7236 265.143C71.0077 265.067 71.287 265.029 71.5617 265.029C71.7368 265.029 71.9381 265.05 72.1653 265.093C72.395 265.133 72.6163 265.217 72.8294 265.345C73.0448 265.473 73.2236 265.666 73.3656 265.924C73.5077 266.182 73.5787 266.528 73.5787 266.961V270.555H72.7406V269.816H72.698C72.6412 269.934 72.5465 270.061 72.4139 270.196C72.2814 270.331 72.105 270.446 71.8848 270.54C71.6646 270.635 71.3959 270.683 71.0787 270.683ZM71.2065 269.93C71.538 269.93 71.8173 269.865 72.0446 269.734C72.2743 269.604 72.4471 269.436 72.5631 269.23C72.6814 269.024 72.7406 268.808 72.7406 268.58V267.813C72.7051 267.856 72.627 267.895 72.5063 267.93C72.3879 267.964 72.2506 267.993 72.0943 268.019C71.9404 268.043 71.7901 268.064 71.6433 268.083C71.4989 268.1 71.3817 268.114 71.2918 268.126C71.074 268.154 70.8704 268.2 70.681 268.264C70.4939 268.326 70.3424 268.419 70.2264 268.545C70.1128 268.668 70.056 268.836 70.056 269.049C70.056 269.34 70.1637 269.56 70.3791 269.71C70.5969 269.856 70.8727 269.93 71.2065 269.93ZM77.4101 272.714C76.8016 272.714 76.3199 272.603 75.9647 272.38C75.612 272.16 75.3504 271.906 75.1799 271.62L75.8476 271.151C75.9233 271.251 76.0192 271.364 76.1352 271.492C76.2512 271.622 76.4098 271.735 76.6111 271.83C76.8147 271.927 77.081 271.975 77.4101 271.975C77.8504 271.975 78.2138 271.869 78.5003 271.656C78.7867 271.442 78.9299 271.109 78.9299 270.654V269.546H78.8589C78.7974 269.646 78.7098 269.769 78.5961 269.915C78.4849 270.06 78.3239 270.189 78.1132 270.303C77.9049 270.414 77.6231 270.469 77.268 270.469C76.8277 270.469 76.4323 270.365 76.0819 270.157C75.7339 269.949 75.4581 269.646 75.2545 269.248C75.0533 268.85 74.9527 268.367 74.9527 267.799C74.9527 267.24 75.0509 266.754 75.2474 266.339C75.4439 265.923 75.7174 265.601 76.0677 265.374C76.4181 265.144 76.8229 265.029 77.2822 265.029C77.6373 265.029 77.9191 265.088 78.1274 265.207C78.3381 265.323 78.4991 265.455 78.6103 265.604C78.724 265.751 78.8116 265.872 78.8731 265.967H78.9584V265.1H79.768V270.711C79.768 271.18 79.6615 271.561 79.4484 271.854C79.2377 272.15 78.9536 272.367 78.5961 272.504C78.241 272.644 77.8457 272.714 77.4101 272.714ZM77.3816 269.717C77.8859 269.717 78.2718 269.546 78.5393 269.205C78.8092 268.862 78.9441 268.388 78.9441 267.785C78.9441 267.195 78.8116 266.715 78.5464 266.343C78.2813 265.969 77.893 265.782 77.3816 265.782C77.0265 265.782 76.7306 265.872 76.4939 266.052C76.2595 266.232 76.0831 266.473 75.9647 266.776C75.8487 267.079 75.7907 267.415 75.7907 267.785C75.7907 268.353 75.9245 268.817 76.192 269.177C76.4595 269.537 76.8561 269.717 77.3816 269.717ZM81.4021 270.555V265.1H82.2118V265.924H82.2686C82.3656 265.654 82.5444 265.435 82.8048 265.267C83.0652 265.099 83.36 265.015 83.689 265.015C83.8406 265.015 83.9731 265.033 84.0868 265.068C84.2004 265.104 84.2998 265.152 84.3851 265.214L84.101 265.924C84.0418 265.893 83.9719 265.87 83.8915 265.853C83.8133 265.834 83.7222 265.825 83.618 265.825C83.2203 265.825 82.8912 265.946 82.6308 266.19C82.3704 266.432 82.2402 266.736 82.2402 267.103V270.555H81.4021ZM86.9451 270.683C86.5995 270.683 86.2858 270.617 86.0041 270.487C85.7223 270.355 85.4986 270.164 85.3329 269.915C85.1672 269.665 85.0843 269.362 85.0843 269.006C85.0843 268.694 85.1459 268.441 85.269 268.246C85.3921 268.05 85.5566 267.896 85.7626 267.785C85.9685 267.674 86.1958 267.591 86.4444 267.536C86.6953 267.479 86.9475 267.434 87.2008 267.401C87.5322 267.359 87.8009 267.327 88.0069 267.305C88.2152 267.282 88.3667 267.243 88.4614 267.188C88.5585 267.134 88.607 267.039 88.607 266.904V266.876C88.607 266.525 88.5112 266.253 88.3194 266.059C88.13 265.865 87.8424 265.768 87.4565 265.768C87.0564 265.768 86.7427 265.855 86.5154 266.031C86.2882 266.206 86.1284 266.393 86.036 266.592L85.2406 266.308C85.3826 265.976 85.572 265.718 85.8087 265.533C86.0479 265.346 86.3083 265.216 86.59 265.143C86.8741 265.067 87.1534 265.029 87.4281 265.029C87.6033 265.029 87.8045 265.05 88.0318 265.093C88.2614 265.133 88.4828 265.217 88.6958 265.345C88.9113 265.473 89.09 265.666 89.232 265.924C89.3741 266.182 89.4451 266.528 89.4451 266.961V270.555H88.607V269.816H88.5644C88.5076 269.934 88.4129 270.061 88.2803 270.196C88.1478 270.331 87.9714 270.446 87.7512 270.54C87.531 270.635 87.2623 270.683 86.9451 270.683ZM87.073 269.93C87.4044 269.93 87.6837 269.865 87.911 269.734C88.1407 269.604 88.3135 269.436 88.4295 269.23C88.5479 269.024 88.607 268.808 88.607 268.58V267.813C88.5715 267.856 88.4934 267.895 88.3727 267.93C88.2543 267.964 88.117 267.993 87.9607 268.019C87.8069 268.043 87.6565 268.064 87.5097 268.083C87.3653 268.1 87.2481 268.114 87.1582 268.126C86.9404 268.154 86.7368 268.2 86.5474 268.264C86.3604 268.326 86.2088 268.419 86.0928 268.545C85.9792 268.668 85.9224 268.836 85.9224 269.049C85.9224 269.34 86.0301 269.56 86.2455 269.71C86.4633 269.856 86.7391 269.93 87.073 269.93ZM91.0748 270.555V265.1H91.8844V265.952H91.9554C92.0691 265.661 92.2526 265.435 92.5059 265.274C92.7592 265.111 93.0634 265.029 93.4185 265.029C93.7784 265.029 94.0778 265.111 94.3169 265.274C94.5584 265.435 94.7466 265.661 94.8816 265.952H94.9384C95.0781 265.671 95.2876 265.447 95.5669 265.281C95.8463 265.113 96.1813 265.029 96.5719 265.029C97.0596 265.029 97.4585 265.182 97.7687 265.487C98.0788 265.79 98.2339 266.263 98.2339 266.904V270.555H97.3958V266.904C97.3958 266.502 97.2857 266.214 97.0655 266.041C96.8454 265.868 96.5861 265.782 96.2878 265.782C95.9043 265.782 95.6072 265.898 95.3965 266.13C95.1858 266.36 95.0804 266.651 95.0804 267.004V270.555H94.2282V266.819C94.2282 266.509 94.1276 266.259 93.9263 266.07C93.7251 265.878 93.4659 265.782 93.1486 265.782C92.9308 265.782 92.7272 265.84 92.5378 265.956C92.3508 266.072 92.1993 266.233 92.0833 266.439C91.9696 266.643 91.9128 266.878 91.9128 267.146V270.555H91.0748Z" fill="#7C89A9"/>
<path d="M129.31 270.555H127.065V263.282H129.409C130.115 263.282 130.718 263.428 131.22 263.719C131.722 264.008 132.107 264.423 132.374 264.965C132.642 265.505 132.776 266.151 132.776 266.904C132.776 267.662 132.641 268.314 132.371 268.861C132.101 269.405 131.708 269.824 131.192 270.118C130.676 270.409 130.048 270.555 129.31 270.555ZM127.946 269.773H129.253C130.155 269.773 130.825 269.518 131.263 269.006C131.703 268.493 131.923 267.792 131.923 266.904C131.923 266.023 131.708 265.33 131.277 264.823C130.846 264.317 130.205 264.063 129.352 264.063H127.946V269.773ZM134.239 270.555V265.1H135.049V265.924H135.106C135.205 265.654 135.385 265.435 135.646 265.267C135.906 265.099 136.2 265.015 136.526 265.015C136.588 265.015 136.665 265.016 136.757 265.018C136.849 265.021 136.919 265.024 136.967 265.029V265.881C136.938 265.874 136.873 265.864 136.771 265.849C136.672 265.833 136.566 265.825 136.455 265.825C136.057 265.825 135.728 265.945 135.468 266.187C135.208 266.428 135.077 266.734 135.077 267.103V270.555H134.239ZM138.06 270.555V265.1H138.898V270.555H138.06ZM138.486 264.191C138.323 264.191 138.182 264.135 138.064 264.024C137.948 263.913 137.89 263.779 137.89 263.623C137.89 263.467 137.948 263.333 138.064 263.222C138.182 263.11 138.323 263.055 138.486 263.055C138.649 263.055 138.789 263.11 138.905 263.222C139.024 263.333 139.083 263.467 139.083 263.623C139.083 263.779 139.024 263.913 138.905 264.024C138.789 264.135 138.649 264.191 138.486 264.191ZM140.647 270.555V263.282H141.485V265.967H141.556C141.617 265.872 141.703 265.751 141.811 265.604C141.923 265.455 142.081 265.323 142.287 265.207C142.496 265.088 142.777 265.029 143.132 265.029C143.592 265.029 143.997 265.144 144.347 265.374C144.697 265.603 144.971 265.929 145.167 266.35C145.364 266.772 145.462 267.269 145.462 267.842C145.462 268.419 145.364 268.92 145.167 269.344C144.971 269.765 144.699 270.092 144.351 270.324C144.002 270.554 143.601 270.668 143.147 270.668C142.796 270.668 142.516 270.61 142.305 270.494C142.094 270.376 141.932 270.242 141.819 270.093C141.705 269.942 141.617 269.816 141.556 269.717H141.456V270.555H140.647ZM141.471 267.827C141.471 268.445 141.604 268.948 141.872 269.337C142.142 269.723 142.529 269.915 143.033 269.915C143.383 269.915 143.676 269.823 143.91 269.638C144.147 269.451 144.324 269.201 144.443 268.886C144.564 268.568 144.624 268.216 144.624 267.827C144.624 267.444 144.565 267.098 144.446 266.79C144.33 266.48 144.154 266.235 143.917 266.055C143.683 265.873 143.388 265.782 143.033 265.782C142.522 265.782 142.133 265.97 141.868 266.347C141.603 266.723 141.471 267.217 141.471 267.827ZM146.958 270.555V263.282H147.796V265.967H147.867C147.928 265.872 148.013 265.751 148.122 265.604C148.234 265.455 148.392 265.323 148.598 265.207C148.807 265.088 149.088 265.029 149.443 265.029C149.903 265.029 150.308 265.144 150.658 265.374C151.008 265.603 151.282 265.929 151.478 266.35C151.675 266.772 151.773 267.269 151.773 267.842C151.773 268.419 151.675 268.92 151.478 269.344C151.282 269.765 151.009 270.092 150.661 270.324C150.313 270.554 149.912 270.668 149.458 270.668C149.107 270.668 148.827 270.61 148.616 270.494C148.405 270.376 148.243 270.242 148.129 270.093C148.016 269.942 147.928 269.816 147.867 269.717H147.767V270.555H146.958ZM147.781 267.827C147.781 268.445 147.915 268.948 148.183 269.337C148.453 269.723 148.84 269.915 149.344 269.915C149.694 269.915 149.987 269.823 150.221 269.638C150.458 269.451 150.635 269.201 150.754 268.886C150.875 268.568 150.935 268.216 150.935 267.827C150.935 267.444 150.876 267.098 150.757 266.79C150.641 266.48 150.465 266.235 150.228 266.055C149.994 265.873 149.699 265.782 149.344 265.782C148.833 265.782 148.444 265.97 148.179 266.347C147.914 266.723 147.781 267.217 147.781 267.827ZM153.993 263.282V270.555H153.155V263.282H153.993ZM157.915 270.668C157.389 270.668 156.936 270.552 156.555 270.32C156.176 270.086 155.884 269.759 155.678 269.34C155.474 268.919 155.372 268.429 155.372 267.87C155.372 267.311 155.474 266.819 155.678 266.393C155.884 265.964 156.17 265.63 156.537 265.391C156.906 265.15 157.337 265.029 157.83 265.029C158.114 265.029 158.394 265.076 158.671 265.171C158.948 265.266 159.2 265.42 159.428 265.633C159.655 265.844 159.836 266.123 159.971 266.471C160.106 266.819 160.173 267.247 160.173 267.756V268.112H156.214C156.233 268.694 156.397 269.14 156.708 269.45C157.02 269.76 157.422 269.915 157.915 269.915C158.244 269.915 158.527 269.844 158.764 269.702C159 269.56 159.172 269.347 159.279 269.063L160.088 269.29C159.96 269.702 159.705 270.035 159.321 270.288C158.938 270.542 158.469 270.668 157.915 270.668ZM156.214 267.387H159.321C159.321 266.925 159.186 266.543 158.916 266.24C158.646 265.935 158.284 265.782 157.83 265.782C157.51 265.782 157.233 265.857 156.999 266.006C156.764 266.155 156.58 266.353 156.445 266.599C156.31 266.843 156.233 267.105 156.214 267.387Z" fill="#7C89A9"/>
<path d="M194.832 264.063V263.282H200.287V264.063H198V270.555H197.119V264.063H194.832ZM202.243 270.555L200.581 265.1H201.462L202.641 269.276H202.698L203.863 265.1H204.757L205.908 269.262H205.965L207.144 265.1H208.025L206.363 270.555H205.539L204.346 266.364H204.26L203.067 270.555H202.243ZM209.232 270.555V265.1H210.071V270.555H209.232ZM209.659 264.191C209.495 264.191 209.354 264.135 209.236 264.024C209.12 263.913 209.062 263.779 209.062 263.623C209.062 263.467 209.12 263.333 209.236 263.222C209.354 263.11 209.495 263.055 209.659 263.055C209.822 263.055 209.962 263.11 210.078 263.222C210.196 263.333 210.255 263.467 210.255 263.623C210.255 263.779 210.196 263.913 210.078 264.024C209.962 264.135 209.822 264.191 209.659 264.191ZM214.078 265.1V265.81H212.913V268.992C212.913 269.229 212.947 269.406 213.016 269.525C213.087 269.641 213.177 269.719 213.286 269.759C213.397 269.797 213.514 269.816 213.637 269.816C213.73 269.816 213.805 269.811 213.865 269.802C213.924 269.79 213.971 269.781 214.007 269.773L214.177 270.526C214.12 270.548 214.041 270.569 213.939 270.59C213.837 270.614 213.708 270.626 213.552 270.626C213.315 270.626 213.083 270.575 212.856 270.473C212.631 270.371 212.444 270.216 212.295 270.008C212.148 269.799 212.075 269.537 212.075 269.219V265.81H211.251V265.1H212.075V263.793H212.913V265.1H214.078ZM217.81 265.1V265.81H216.646V268.992C216.646 269.229 216.68 269.406 216.749 269.525C216.82 269.641 216.91 269.719 217.019 269.759C217.13 269.797 217.247 269.816 217.37 269.816C217.462 269.816 217.538 269.811 217.597 269.802C217.657 269.79 217.704 269.781 217.739 269.773L217.91 270.526C217.853 270.548 217.774 270.569 217.672 270.59C217.57 270.614 217.441 270.626 217.285 270.626C217.048 270.626 216.816 270.575 216.589 270.473C216.364 270.371 216.177 270.216 216.028 270.008C215.881 269.799 215.808 269.537 215.808 269.219V265.81H214.984V265.1H215.808V263.793H216.646V265.1H217.81ZM221.399 270.668C220.874 270.668 220.421 270.552 220.039 270.32C219.661 270.086 219.368 269.759 219.162 269.34C218.959 268.919 218.857 268.429 218.857 267.87C218.857 267.311 218.959 266.819 219.162 266.393C219.368 265.964 219.655 265.63 220.022 265.391C220.391 265.15 220.822 265.029 221.314 265.029C221.598 265.029 221.879 265.076 222.156 265.171C222.433 265.266 222.685 265.42 222.912 265.633C223.14 265.844 223.321 266.123 223.456 266.471C223.591 266.819 223.658 267.247 223.658 267.756V268.112H219.698C219.717 268.694 219.882 269.14 220.192 269.45C220.505 269.76 220.907 269.915 221.399 269.915C221.729 269.915 222.011 269.844 222.248 269.702C222.485 269.56 222.657 269.347 222.763 269.063L223.573 269.29C223.445 269.702 223.189 270.035 222.806 270.288C222.422 270.542 221.953 270.668 221.399 270.668ZM219.698 267.387H222.806C222.806 266.925 222.671 266.543 222.401 266.24C222.131 265.935 221.769 265.782 221.314 265.782C220.995 265.782 220.718 265.857 220.483 266.006C220.249 266.155 220.064 266.353 219.929 266.599C219.794 266.843 219.717 267.105 219.698 267.387ZM225.033 270.555V265.1H225.843V265.924H225.899C225.996 265.654 226.175 265.435 226.436 265.267C226.696 265.099 226.991 265.015 227.32 265.015C227.471 265.015 227.604 265.033 227.718 265.068C227.831 265.104 227.931 265.152 228.016 265.214L227.732 265.924C227.673 265.893 227.603 265.87 227.522 265.853C227.444 265.834 227.353 265.825 227.249 265.825C226.851 265.825 226.522 265.946 226.262 266.19C226.001 266.432 225.871 266.736 225.871 267.103V270.555H225.033Z" fill="#7C89A9"/>
<circle cx="43.4225" cy="266.865" r="3.34044" fill="#703FFB"/>
<circle cx="119.883" cy="266.865" r="3.34044" fill="#DE287A"/>
<circle cx="188.176" cy="266.865" r="3.34044" fill="#FCAE56"/>
<circle cx="136.216" cy="153.286" r="27.0947" stroke="#F0F3F9" stroke-width="5.93856"/>
<circle cx="136.216" cy="153.286" r="52.3336" stroke="#F0F3F9" stroke-width="5.93856"/>
<circle cx="136.217" cy="153.287" r="77.5725" stroke="#F0F3F9" stroke-width="5.93856"/>
<mask id="path-13-inside-1_0_33" fill="white">
<path d="M132.546 75.7998C132.469 74.1627 133.733 72.767 135.372 72.7498C150.532 72.5905 165.452 76.7144 178.401 84.6759C192.194 93.1562 203.111 105.597 209.727 120.375C216.344 135.153 218.353 151.582 215.492 167.518C212.631 183.455 205.033 198.159 193.689 209.713C182.346 221.267 167.784 229.134 151.902 232.287C136.021 235.44 119.558 233.733 104.661 227.389C89.7636 221.046 77.1246 210.359 68.3924 196.724C60.1944 183.923 55.7971 169.082 55.6779 153.921C55.665 152.283 57.0373 150.993 58.6755 151.04C60.3137 151.088 61.5971 152.455 61.6148 154.093C61.7656 168.061 65.8358 181.727 73.3903 193.523C81.4791 206.153 93.1868 216.053 106.986 221.929C120.785 227.805 136.035 229.386 150.746 226.465C165.458 223.545 178.947 216.258 189.454 205.555C199.962 194.853 207 181.232 209.65 166.47C212.3 151.707 210.439 136.489 204.31 122.8C198.182 109.111 188.069 97.5872 175.292 89.7318C163.36 82.3952 149.621 78.5768 135.653 78.6825C134.014 78.6949 132.624 77.4369 132.546 75.7998Z"/>
</mask>
<path d="M132.546 75.7998C132.469 74.1627 133.733 72.767 135.372 72.7498C150.532 72.5905 165.452 76.7144 178.401 84.6759C192.194 93.1562 203.111 105.597 209.727 120.375C216.344 135.153 218.353 151.582 215.492 167.518C212.631 183.455 205.033 198.159 193.689 209.713C182.346 221.267 167.784 229.134 151.902 232.287C136.021 235.44 119.558 233.733 104.661 227.389C89.7636 221.046 77.1246 210.359 68.3924 196.724C60.1944 183.923 55.7971 169.082 55.6779 153.921C55.665 152.283 57.0373 150.993 58.6755 151.04C60.3137 151.088 61.5971 152.455 61.6148 154.093C61.7656 168.061 65.8358 181.727 73.3903 193.523C81.4791 206.153 93.1868 216.053 106.986 221.929C120.785 227.805 136.035 229.386 150.746 226.465C165.458 223.545 178.947 216.258 189.454 205.555C199.962 194.853 207 181.232 209.65 166.47C212.3 151.707 210.439 136.489 204.31 122.8C198.182 109.111 188.069 97.5872 175.292 89.7318C163.36 82.3952 149.621 78.5768 135.653 78.6825C134.014 78.6949 132.624 77.4369 132.546 75.7998Z" stroke="#703FFB" stroke-width="11.8771" mask="url(#path-13-inside-1_0_33)"/>
<mask id="path-14-inside-2_0_33" fill="white">
<path d="M133.08 126.371C132.89 124.743 134.057 123.255 135.696 123.226C138.921 123.171 142.141 123.634 145.231 124.605C149.267 125.874 152.989 127.98 156.155 130.785C159.321 133.59 161.859 137.032 163.604 140.886C165.349 144.74 166.26 148.918 166.28 153.148C166.299 157.378 165.426 161.565 163.716 165.434C162.007 169.303 159.501 172.769 156.36 175.603C153.22 178.437 149.518 180.577 145.494 181.882C142.413 182.882 139.197 183.375 135.971 183.349C134.333 183.335 133.152 181.858 133.327 180.228C133.501 178.599 134.967 177.439 136.605 177.413C138.997 177.374 141.376 176.98 143.663 176.238C146.892 175.19 149.864 173.473 152.385 171.198C154.905 168.923 156.917 166.142 158.289 163.036C159.661 159.931 160.362 156.57 160.346 153.175C160.33 149.78 159.599 146.426 158.198 143.333C156.798 140.24 154.761 137.478 152.22 135.226C149.679 132.974 146.691 131.284 143.452 130.266C141.159 129.545 138.777 129.173 136.384 129.156C134.745 129.145 133.27 127.998 133.08 126.371Z"/>
</mask>
<path d="M133.08 126.371C132.89 124.743 134.057 123.255 135.696 123.226C138.921 123.171 142.141 123.634 145.231 124.605C149.267 125.874 152.989 127.98 156.155 130.785C159.321 133.59 161.859 137.032 163.604 140.886C165.349 144.74 166.26 148.918 166.28 153.148C166.299 157.378 165.426 161.565 163.716 165.434C162.007 169.303 159.501 172.769 156.36 175.603C153.22 178.437 149.518 180.577 145.494 181.882C142.413 182.882 139.197 183.375 135.971 183.349C134.333 183.335 133.152 181.858 133.327 180.228C133.501 178.599 134.967 177.439 136.605 177.413C138.997 177.374 141.376 176.98 143.663 176.238C146.892 175.19 149.864 173.473 152.385 171.198C154.905 168.923 156.917 166.142 158.289 163.036C159.661 159.931 160.362 156.57 160.346 153.175C160.33 149.78 159.599 146.426 158.198 143.333C156.798 140.24 154.761 137.478 152.22 135.226C149.679 132.974 146.691 131.284 143.452 130.266C141.159 129.545 138.777 129.173 136.384 129.156C134.745 129.145 133.27 127.998 133.08 126.371Z" stroke="#FCAE56" stroke-width="11.8771" mask="url(#path-14-inside-2_0_33)"/>
<mask id="path-15-inside-3_0_33" fill="white">
<path d="M132.655 101.073C132.544 99.4372 133.78 98.0127 135.419 97.989C143.846 97.8674 152.205 99.674 159.849 103.287C168.389 107.323 175.753 113.48 181.238 121.17C186.724 128.86 190.148 137.826 191.185 147.215C192.222 156.604 190.837 166.102 187.162 174.804C183.486 183.505 177.644 191.12 170.19 196.923C162.737 202.726 153.921 206.523 144.584 207.952C135.247 209.382 125.7 208.395 116.852 205.088C108.932 202.127 101.809 197.395 96.0204 191.269C94.8946 190.077 95.0541 188.198 96.3042 187.138C97.5543 186.078 99.421 186.239 100.554 187.423C105.682 192.78 111.96 196.922 118.93 199.528C126.828 202.48 135.351 203.36 143.686 202.085C152.021 200.809 159.89 197.419 166.544 192.239C173.197 187.059 178.412 180.262 181.693 172.494C184.974 164.726 186.211 156.248 185.285 147.867C184.359 139.486 181.302 131.482 176.406 124.617C171.509 117.753 164.936 112.257 157.312 108.654C150.585 105.474 143.238 103.862 135.823 103.921C134.184 103.934 132.767 102.708 132.655 101.073Z"/>
</mask>
<path d="M132.655 101.073C132.544 99.4372 133.78 98.0127 135.419 97.989C143.846 97.8674 152.205 99.674 159.849 103.287C168.389 107.323 175.753 113.48 181.238 121.17C186.724 128.86 190.148 137.826 191.185 147.215C192.222 156.604 190.837 166.102 187.162 174.804C183.486 183.505 177.644 191.12 170.19 196.923C162.737 202.726 153.921 206.523 144.584 207.952C135.247 209.382 125.7 208.395 116.852 205.088C108.932 202.127 101.809 197.395 96.0204 191.269C94.8946 190.077 95.0541 188.198 96.3042 187.138C97.5543 186.078 99.421 186.239 100.554 187.423C105.682 192.78 111.96 196.922 118.93 199.528C126.828 202.48 135.351 203.36 143.686 202.085C152.021 200.809 159.89 197.419 166.544 192.239C173.197 187.059 178.412 180.262 181.693 172.494C184.974 164.726 186.211 156.248 185.285 147.867C184.359 139.486 181.302 131.482 176.406 124.617C171.509 117.753 164.936 112.257 157.312 108.654C150.585 105.474 143.238 103.862 135.823 103.921C134.184 103.934 132.767 102.708 132.655 101.073Z" stroke="#DE287A" stroke-width="11.8771" mask="url(#path-15-inside-3_0_33)"/>
<g filter="url(#filter1_d_0_33)">
<rect x="20.0427" y="103.924" width="74.232" height="34.1467" rx="4" fill="white"/>
</g>
<path d="M33.8901 126.619L33.8951 125.48C32.8709 125.397 32.0556 125.086 31.4491 124.545C30.8458 124.005 30.5277 123.269 30.4945 122.338H32.3091C32.339 122.789 32.5014 123.142 32.7964 123.397C33.0913 123.652 33.4609 123.815 33.905 123.884L33.9249 120.876L33.4775 120.762C32.6389 120.547 31.9761 120.22 31.4888 119.783C31.0049 119.342 30.763 118.757 30.763 118.028C30.763 117.481 30.8989 116.995 31.1707 116.571C31.4457 116.143 31.8236 115.799 32.3042 115.537C32.7881 115.275 33.3416 115.113 33.9647 115.05L33.9697 113.891H35.0236L35.0187 115.05C35.6451 115.109 36.192 115.27 36.6593 115.532C37.1299 115.79 37.4962 116.128 37.758 116.546C38.0232 116.964 38.1607 117.436 38.1707 117.963H36.3958C36.356 117.605 36.2135 117.312 35.9682 117.083C35.7263 116.851 35.4064 116.7 35.0087 116.631L34.9888 119.469L35.317 119.554C35.8274 119.673 36.3096 119.851 36.7637 120.086C37.2211 120.318 37.5923 120.629 37.8773 121.021C38.1657 121.408 38.3099 121.897 38.3099 122.487C38.3065 123.322 38.0116 124.012 37.4249 124.555C36.8416 125.096 36.0163 125.404 34.9491 125.48L34.9441 126.619H33.8901ZM34.959 123.884C35.4164 123.811 35.781 123.651 36.0528 123.402C36.3245 123.15 36.4621 122.84 36.4654 122.472C36.4621 122.121 36.3262 121.847 36.0577 121.652C35.7893 121.453 35.4297 121.287 34.9789 121.155L34.959 123.884ZM33.9349 119.201L33.9547 116.631C33.5371 116.704 33.2123 116.856 32.9803 117.088C32.7516 117.317 32.6356 117.592 32.6323 117.913C32.629 118.268 32.7582 118.545 33.0201 118.744C33.2852 118.939 33.5902 119.092 33.9349 119.201ZM43.7525 115.164V125.346H41.9031V117.521H41.8186C41.7191 117.676 41.4871 117.842 41.1225 118.018C40.758 118.19 40.289 118.276 39.7156 118.276V116.785C40.0669 116.785 40.3801 116.723 40.6552 116.601C40.9303 116.475 41.164 116.322 41.3562 116.143C41.5518 115.961 41.7026 115.78 41.8086 115.602C41.9147 115.423 41.9727 115.277 41.9826 115.164H43.7525ZM50.003 125.485C49.2871 125.485 48.6508 125.362 48.0939 125.117C47.5404 124.872 47.1013 124.53 46.7765 124.093C46.455 123.655 46.2859 123.15 46.2694 122.577H48.1387C48.1619 122.991 48.3492 123.322 48.7005 123.571C49.0551 123.816 49.4877 123.939 49.9981 123.939C50.5416 123.939 50.9891 123.8 51.3404 123.521C51.6917 123.24 51.8657 122.873 51.8624 122.423C51.8657 121.962 51.6851 121.586 51.3205 121.294C50.9592 121.002 50.4571 120.856 49.8141 120.856H48.9143V119.435H49.8141C50.3411 119.435 50.7703 119.299 51.1018 119.027C51.4365 118.755 51.6022 118.397 51.5989 117.953C51.6022 117.526 51.4581 117.181 51.1664 116.919C50.878 116.654 50.4969 116.521 50.0229 116.521C49.5523 116.521 49.1446 116.646 48.7999 116.894C48.4552 117.143 48.2746 117.481 48.258 117.908H46.4832C46.4964 117.338 46.6605 116.838 46.9753 116.407C47.2902 115.973 47.7128 115.635 48.2431 115.393C48.7767 115.147 49.3733 115.025 50.0329 115.025C50.7123 115.025 51.3023 115.152 51.8028 115.408C52.3065 115.66 52.696 115.999 52.9711 116.427C53.2495 116.854 53.387 117.327 53.3837 117.844C53.387 118.414 53.2197 118.894 52.8816 119.285C52.5435 119.673 52.0977 119.927 51.5442 120.046V120.126C52.2568 120.228 52.8054 120.494 53.1898 120.921C53.5743 121.349 53.7649 121.881 53.7616 122.517C53.7649 123.09 53.6041 123.601 53.2793 124.048C52.9545 124.496 52.5087 124.847 51.942 125.102C51.3752 125.357 50.7289 125.485 50.003 125.485ZM57.1224 123.954L57.0577 124.501C57.0113 124.918 56.9285 125.343 56.8091 125.773C56.6931 126.208 56.5705 126.607 56.4413 126.972C56.312 127.336 56.2076 127.623 56.128 127.832H54.915C54.9647 127.629 55.0293 127.353 55.1089 127.001C55.1884 126.653 55.2663 126.262 55.3425 125.828C55.4188 125.397 55.4701 124.958 55.4966 124.511L55.5314 123.954H57.1224ZM62.2593 125.485C61.5201 125.485 60.8639 125.361 60.2905 125.112C59.7204 124.864 59.2746 124.524 58.9531 124.093C58.6317 123.659 58.4709 123.167 58.4709 122.616C58.4709 122.192 58.5637 121.801 58.7493 121.443C58.9382 121.082 59.1934 120.782 59.5149 120.543C59.8364 120.301 60.1977 120.147 60.5987 120.081V120.011C60.0751 119.895 59.6508 119.628 59.326 119.211C59.0045 118.79 58.8454 118.304 58.8487 117.754C58.8487 117.231 58.9946 116.763 59.2862 116.352C59.5812 115.941 59.9856 115.618 60.4993 115.383C61.0164 115.144 61.603 115.025 62.2593 115.025C62.9122 115.025 63.4939 115.144 64.0043 115.383C64.518 115.618 64.9224 115.941 65.2174 116.352C65.5156 116.763 65.6648 117.231 65.6648 117.754C65.6615 118.304 65.4974 118.79 65.1726 119.211C64.8478 119.628 64.4285 119.895 63.9148 120.011V120.081C64.3092 120.147 64.6672 120.301 64.9887 120.543C65.3102 120.782 65.5654 121.082 65.7543 121.443C65.9465 121.801 66.0426 122.192 66.0426 122.616C66.0426 123.167 65.8802 123.659 65.5554 124.093C65.2306 124.524 64.7832 124.864 64.2131 125.112C63.6463 125.361 62.9951 125.485 62.2593 125.485ZM62.2593 124.063C62.8293 124.063 63.2851 123.919 63.6264 123.631C63.9711 123.339 64.1451 122.958 64.1485 122.487C64.1451 122.003 63.9645 121.606 63.6066 121.294C63.2519 120.979 62.8028 120.822 62.2593 120.822C61.7091 120.822 61.255 120.977 60.897 121.289C60.5424 121.601 60.3667 122 60.3701 122.487C60.3667 122.958 60.5358 123.339 60.8772 123.631C61.2219 123.919 61.6826 124.063 62.2593 124.063ZM62.2593 119.425C62.7233 119.425 63.1061 119.287 63.4077 119.012C63.7126 118.734 63.8667 118.372 63.8701 117.928C63.8667 117.491 63.7159 117.138 63.4176 116.869C63.1193 116.601 62.7332 116.467 62.2593 116.467C61.7787 116.467 61.3892 116.601 61.0909 116.869C60.7926 117.138 60.6451 117.491 60.6485 117.928C60.6451 118.369 60.7943 118.729 61.0959 119.007C61.4008 119.285 61.7886 119.425 62.2593 119.425ZM71.3312 125.485C70.6153 125.485 69.9789 125.362 69.4221 125.117C68.8686 124.872 68.4294 124.53 68.1046 124.093C67.7831 123.655 67.6141 123.15 67.5975 122.577H69.4668C69.49 122.991 69.6773 123.322 70.0286 123.571C70.3832 123.816 70.8158 123.939 71.3262 123.939C71.8698 123.939 72.3172 123.8 72.6685 123.521C73.0198 123.24 73.1939 122.873 73.1905 122.423C73.1939 121.962 73.0132 121.586 72.6486 121.294C72.2874 121.002 71.7852 120.856 71.1422 120.856H70.2424V119.435H71.1422C71.6692 119.435 72.0984 119.299 72.4299 119.027C72.7646 118.755 72.9304 118.397 72.927 117.953C72.9304 117.526 72.7862 117.181 72.4945 116.919C72.2062 116.654 71.825 116.521 71.3511 116.521C70.8804 116.521 70.4727 116.646 70.128 116.894C69.7833 117.143 69.6027 117.481 69.5861 117.908H67.8113C67.8245 117.338 67.9886 116.838 68.3035 116.407C68.6183 115.973 69.0409 115.635 69.5712 115.393C70.1048 115.147 70.7014 115.025 71.361 115.025C72.0404 115.025 72.6304 115.152 73.1309 115.408C73.6347 115.66 74.0241 115.999 74.2992 116.427C74.5776 116.854 74.7152 117.327 74.7118 117.844C74.7152 118.414 74.5478 118.894 74.2097 119.285C73.8716 119.673 73.4259 119.927 72.8724 120.046V120.126C73.585 120.228 74.1335 120.494 74.518 120.921C74.9024 121.349 75.093 121.881 75.0897 122.517C75.093 123.09 74.9323 123.601 74.6074 124.048C74.2826 124.496 73.8368 124.847 73.2701 125.102C72.7033 125.357 72.057 125.485 71.3312 125.485ZM76.7962 125.346V124.013L80.331 120.548C80.8348 120.038 81.2143 119.604 81.4695 119.246C81.7247 118.888 81.8523 118.497 81.8523 118.072C81.8523 117.592 81.6915 117.214 81.3701 116.939C81.0486 116.66 80.6459 116.521 80.162 116.521C79.6549 116.521 79.2488 116.674 78.9439 116.979C78.6423 117.28 78.4915 117.691 78.4915 118.212H76.7365C76.7365 117.565 76.884 117.003 77.179 116.526C77.474 116.049 77.88 115.679 78.397 115.418C78.9174 115.156 79.514 115.025 80.1868 115.025C80.8696 115.025 81.4678 115.152 81.9816 115.408C82.4986 115.663 82.9013 116.012 83.1897 116.457C83.478 116.901 83.6222 117.408 83.6222 117.978C83.6222 118.359 83.5493 118.734 83.4034 119.102C83.2576 119.469 83.0007 119.879 82.6328 120.329C82.2683 120.777 81.7562 121.317 81.0966 121.95L79.3416 123.735V123.805H83.7763V125.346H76.7962Z" fill="#6A35FF"/>
</g>
<defs>
<filter id="filter0_d_0_33" x="-63" y="-25" width="378.72" height="406.928" filterUnits="userSpaceOnUse" color-interpolation-filters="sRGB">
<feFlood flood-opacity="0" result="BackgroundImageFix"/>
<feColorMatrix in="SourceAlpha" type="matrix" values="0 0 0 0 0 0 0 0 0 0 0 0 0 0 0 0 0 0 127 0" result="hardAlpha"/>
<feMorphology radius="25" operator="erode" in="SourceAlpha" result="effect1_dropShadow_0_33"/>
<feOffset dx="-8" dy="30"/>
<feGaussianBlur stdDeviation="40"/>
<feColorMatrix type="matrix" values="0 0 0 0 0.320833 0 0 0 0 0.320833 0 0 0 0 0.320833 0 0 0 0.1 0"/>
<feBlend mode="normal" in2="BackgroundImageFix" result="effect1_dropShadow_0_33"/>
<feBlend mode="normal" in="SourceGraphic" in2="effect1_dropShadow_0_33" result="shape"/>
</filter>
<filter id="filter1_d_0_33" x="0.0427246" y="93.924" width="134.232" height="94.1467" filterUnits="userSpaceOnUse" color-interpolation-filters="sRGB">
<feFlood flood-opacity="0" result="BackgroundImageFix"/>
<feColorMatrix in="SourceAlpha" type="matrix" values="0 0 0 0 0 0 0 0 0 0 0 0 0 0 0 0 0 0 127 0" result="hardAlpha"/>
<feOffset dx="10" dy="20"/>
<feGaussianBlur stdDeviation="15"/>
<feColorMatrix type="matrix" values="0 0 0 0 0 0 0 0 0 0 0 0 0 0 0 0 0 0 0.04 0"/>
<feBlend mode="normal" in2="BackgroundImageFix" result="effect1_dropShadow_0_33"/>
<feBlend mode="normal" in="SourceGraphic" in2="effect1_dropShadow_0_33" result="shape"/>
</filter>
</defs>
</svg>
